# xmcd
#
# Track frame offsets:
#	150
#	12105
#	28570
#	38312
#	51367
#	61117
#	75732
#	89930
#	104342
#	119175
#
# Disc length: 1734 seconds
#
# Revision: 1
# Processed by: cddbd v1.5.2PL0 Copyright (c) Steve Scherf et al.
# Submitted via: EasyCDDAExtractor 12.0.0.1
#
DISCID=7d06c40a
DTITLE=Yolandita Monge - Con Todo Mi Amor...!
DYEAR=1974
DGENRE=Latin
TTITLE0=Vete De Aqui
TTITLE1=Yo Se Bien Que Tu Me Quieres
TTITLE2=A Casa No Volvere
TTITLE3=Que Soy Para Ti
TTITLE4=Cancion Del Alma
TTITLE5=Porque Diste Vuelta La Cara
TTITLE6=Van A Ser Las Diez
TTITLE7=Para Olvidarme De Este Amor
TTITLE8=La Palabra De Dios
TTITLE9=Soñando Con Puerto Rico
EXTD=ID3G: 116
EXTT0=
EXTT1=
EXTT2=
EXTT3=
EXTT4=
EXTT5=
EXTT6=
EXTT7=
EXTT8=
EXTT9=
PLAYORDER=
